<?xml version="1.0" encoding="utf-8"?>
<!-- Generator: Adobe Illustrator 21.0.2, SVG Export Plug-In . SVG Version: 6.00 Build 0)  -->
<svg version="1.1" id="Layer_1" xmlns="http://www.w3.org/2000/svg" xmlns:xlink="http://www.w3.org/1999/xlink" x="0px" y="0px"
	 width="77.4px" height="30px" viewBox="0 0 77.4 30" style="enable-background:new 0 0 77.4 30;" xml:space="preserve">
<style type="text/css">
	.st0{fill:#225E63;}
	.st1{fill:#FEFEFE;}
	.st2{fill:#2BBC5D;}
</style>
<title>COMPLIANT + Rectangle 3 + Letters + DSS</title>
<g>
	<path class="st0" d="M52.6,16.8l0.8,0.2c-0.1,0.2-0.1,0.4-0.2,0.5c-0.1,0.1-0.2,0.2-0.4,0.3c-0.2,0.1-0.4,0.1-0.6,0.1
		c-0.3,0-0.5,0-0.7-0.1c-0.2-0.1-0.4-0.2-0.5-0.5c-0.1-0.2-0.2-0.5-0.2-0.8c0-0.5,0.1-0.8,0.4-1.1c0.2-0.2,0.6-0.4,1-0.4
		c0.3,0,0.6,0.1,0.8,0.2c0.2,0.1,0.4,0.4,0.4,0.7l-0.8,0.2c0-0.1-0.1-0.1-0.1-0.2c0-0.1-0.1-0.1-0.2-0.2c-0.1,0-0.1-0.1-0.2-0.1
		c-0.2,0-0.3,0.1-0.4,0.2c-0.1,0.1-0.1,0.3-0.1,0.5c0,0.3,0,0.5,0.1,0.6c0.1,0.1,0.2,0.2,0.4,0.2c0.2,0,0.3,0,0.4-0.1
		C52.5,17.1,52.5,16.9,52.6,16.8L52.6,16.8z M53.6,16.5c0-0.5,0.1-0.8,0.4-1.1c0.3-0.3,0.6-0.4,1.1-0.4c0.5,0,0.8,0.1,1.1,0.4
		c0.3,0.2,0.4,0.6,0.4,1c0,0.3-0.1,0.6-0.2,0.8c-0.1,0.2-0.3,0.4-0.5,0.5c-0.2,0.1-0.5,0.2-0.8,0.2c-0.3,0-0.6,0-0.8-0.1
		c-0.2-0.1-0.4-0.3-0.5-0.5C53.7,17.1,53.6,16.8,53.6,16.5L53.6,16.5z M54.5,16.5c0,0.3,0.1,0.5,0.2,0.6c0.1,0.1,0.2,0.2,0.4,0.2
		c0.2,0,0.3-0.1,0.4-0.2c0.1-0.1,0.2-0.3,0.2-0.6c0-0.3-0.1-0.5-0.2-0.6c-0.1-0.1-0.2-0.2-0.4-0.2c-0.2,0-0.3,0.1-0.4,0.2
		C54.5,16,54.5,16.2,54.5,16.5L54.5,16.5z M57,15.1h1.1l0.4,1.7l0.4-1.7h1.1v2.8h-0.7v-2.1l-0.5,2.1h-0.6l-0.5-2.1v2.1H57L57,15.1
		L57,15.1z M60.6,15.1h1.4c0.3,0,0.5,0.1,0.7,0.2c0.2,0.1,0.2,0.4,0.2,0.6c0,0.3-0.1,0.5-0.3,0.7c-0.2,0.2-0.4,0.2-0.8,0.2h-0.5v1
		h-0.9L60.6,15.1L60.6,15.1z M61.5,16.3h0.2c0.2,0,0.3,0,0.3-0.1c0.1-0.1,0.1-0.1,0.1-0.2c0-0.1,0-0.2-0.1-0.2
		c-0.1-0.1-0.2-0.1-0.3-0.1h-0.2L61.5,16.3L61.5,16.3z M63.4,15.1h0.9v2.1h1.3v0.7h-2.2L63.4,15.1L63.4,15.1z M66.1,15.1h0.9v2.8
		h-0.9L66.1,15.1L66.1,15.1z M69.2,17.4h-1l-0.1,0.5h-0.9l1-2.8h0.9l1,2.8h-0.9L69.2,17.4L69.2,17.4z M69.1,16.8l-0.3-1l-0.3,1H69.1
		L69.1,16.8z M70.6,15.1h0.8l1,1.5v-1.5h0.8v2.8h-0.8l-1-1.5v1.5h-0.8V15.1L70.6,15.1z M73.6,15.1h2.6v0.7h-0.9v2.1h-0.9v-2.1h-0.9
		V15.1L73.6,15.1z"/>
	<path class="st0" d="M42.2,19.4l2.5-0.8l-0.8-1.8C43.3,17.5,42.7,18.5,42.2,19.4L42.2,19.4z M41.4,11.1L36.5,0.3l-35.7,2l9.9,27
		l19-6c-1.2-1.7-1.7-3.8-0.3-4.8c1.6-1.1,3.9,0.2,5.4,2C36.4,18.1,40.5,12.4,41.4,11.1L41.4,11.1z"/>
	<path class="st1" d="M35.4,8.1c1.5,0,2.7-1.1,2.7-2.6S36.9,3,35.4,3c-1.5,0-2.7,1.1-2.7,2.6C32.7,7,33.9,8.1,35.4,8.1L35.4,8.1z
		 M33.2,9.2h4.4v11.6h-4.4V9.2L33.2,9.2z M31,12.6C31,12.6,31.1,12.6,31,12.6l0.1-3c0,0,0-0.1-0.1-0.1c0,0-0.6-0.4-2.4-0.5
		C28.6,9,27,9,26.6,9.1c-6.4,0.5-6.7,5.2-6.7,5.4v1.1c0,0.1,0,4.9,6.7,5.3c0.7,0,1.9,0,2.1,0c1.5,0,2.6-0.5,2.6-0.5
		c0,0,0.1-0.1,0.1-0.1v-2.7c0,0,0-0.1-0.1,0c0,0-0.5,0.4-2.6,0.6c-0.6,0.1-0.9,0-1.1,0c-3-0.5-3.1-2.7-3.1-2.7c0,0,0-0.1,0-0.1v-0.8
		c0,0,0-0.1,0-0.1c0,0,0.2-2.3,3.1-2.6h1.1C30,12,31,12.6,31,12.6L31,12.6z M7.6,20.7C7.6,20.8,7.7,20.8,7.6,20.7l4.4,0.1
		c0,0,0.1,0,0.1-0.1v-3.4c0,0,0-0.1,0.1-0.1c0,0,6.9,0.5,6.9-4.1c0-3.6-4.3-4-5.7-4c0,0-5.6,0-5.6,0c0,0-0.1,0-0.1,0.1L7.6,20.7
		L7.6,20.7z M12,14.8v-3h1.1c0,0,1.5,0.1,1.7,1.1c0,0.1,0,0.6,0,0.6c-0.2,1.2-1.5,1.3-1.5,1.3L12,14.8L12,14.8z"/>
	<path class="st2" d="M35.5,26.4c0.4,0,0.6,0,1.1-0.2c1.6-0.8,6.9-13.7,12.4-17.7c0,0,0.1-0.1,0.1-0.1c0-0.1,0-0.1,0-0.1
		s0-0.3-0.8-0.3c-5-0.1-10.1,10.3-12.8,14.4c0,0-0.2,0-0.2,0s-1.8-2.1-3.4-3c0,0-0.2-0.1-0.4-0.1c-0.1,0-0.9,0.1-1.2,0.5
		c-0.4,0.4-0.4,0.7-0.4,1.2c0,0,0,0.2,0.1,0.3c0.4,0.7,2.2,3.1,3.6,4.4C33.8,25.9,34.2,26.4,35.5,26.4L35.5,26.4z"/>
	<path class="st0" d="M50.5,4.5h4.1c0.8,0,1.5,0.1,2,0.3c0.5,0.2,0.9,0.5,1.2,1c0.3,0.4,0.6,0.9,0.7,1.4c0.1,0.5,0.2,1.1,0.2,1.7
		c0,1-0.1,1.7-0.3,2.2c-0.2,0.5-0.5,1-0.9,1.3c-0.4,0.4-0.8,0.6-1.3,0.7c-0.6,0.2-1.2,0.2-1.7,0.2h-4.1L50.5,4.5L50.5,4.5z
		 M53.3,6.6v4.9H54c0.6,0,1-0.1,1.2-0.2c0.2-0.1,0.4-0.4,0.6-0.7c0.1-0.3,0.2-0.8,0.2-1.6c0-1-0.2-1.6-0.5-2
		c-0.3-0.4-0.8-0.5-1.5-0.5L53.3,6.6L53.3,6.6z M59.6,10.6l2.6-0.2c0.1,0.4,0.2,0.8,0.3,1c0.3,0.4,0.7,0.5,1.2,0.5
		c0.4,0,0.7-0.1,0.9-0.3c0.2-0.2,0.3-0.4,0.3-0.7c0-0.2-0.1-0.4-0.3-0.6c-0.2-0.2-0.7-0.4-1.4-0.5c-1.2-0.3-2.1-0.6-2.6-1.1
		c-0.5-0.5-0.8-1-0.8-1.7c0-0.5,0.1-0.9,0.4-1.3c0.3-0.4,0.7-0.7,1.2-1c0.5-0.2,1.3-0.4,2.2-0.4c1.1,0,2,0.2,2.6,0.6
		c0.6,0.4,1,1.1,1.1,2l-2.6,0.2c-0.1-0.4-0.2-0.7-0.4-0.9c-0.2-0.2-0.5-0.3-0.9-0.3c-0.3,0-0.6,0.1-0.7,0.2
		c-0.2,0.1-0.2,0.3-0.2,0.5c0,0.1,0.1,0.3,0.2,0.4c0.1,0.1,0.4,0.2,0.9,0.3c1.2,0.3,2.1,0.5,2.6,0.8c0.5,0.3,0.9,0.6,1.1,1
		c0.2,0.4,0.4,0.8,0.4,1.3c0,0.6-0.2,1.1-0.5,1.6c-0.3,0.5-0.8,0.9-1.3,1.1c-0.6,0.2-1.3,0.4-2.2,0.4c-1.5,0-2.6-0.3-3.2-0.9
		C60,12.2,59.6,11.5,59.6,10.6L59.6,10.6z M68.4,10.6l2.6-0.2c0.1,0.4,0.2,0.8,0.3,1c0.3,0.4,0.7,0.5,1.2,0.5c0.4,0,0.7-0.1,0.9-0.3
		c0.2-0.2,0.3-0.4,0.3-0.7c0-0.2-0.1-0.4-0.3-0.6c-0.2-0.2-0.7-0.4-1.4-0.5c-1.2-0.3-2.1-0.6-2.6-1.1c-0.5-0.5-0.8-1-0.8-1.7
		c0-0.5,0.1-0.9,0.4-1.3c0.3-0.4,0.7-0.7,1.2-1c0.5-0.2,1.3-0.4,2.2-0.4c1.1,0,2,0.2,2.6,0.6c0.6,0.4,1,1.1,1.1,2l-2.6,0.2
		c-0.1-0.4-0.2-0.7-0.4-0.9c-0.2-0.2-0.5-0.3-0.9-0.3c-0.3,0-0.6,0.1-0.7,0.2c-0.2,0.1-0.2,0.3-0.2,0.5c0,0.1,0.1,0.3,0.2,0.4
		c0.1,0.1,0.4,0.2,0.9,0.3c1.2,0.3,2.1,0.5,2.6,0.8c0.5,0.3,0.9,0.6,1.1,1c0.2,0.4,0.4,0.8,0.4,1.3c0,0.6-0.2,1.1-0.5,1.6
		c-0.3,0.5-0.8,0.9-1.3,1.1c-0.6,0.2-1.3,0.4-2.2,0.4c-1.5,0-2.6-0.3-3.2-0.9C68.8,12.2,68.5,11.5,68.4,10.6L68.4,10.6z"/>
</g>
</svg>
