<svg width="102" height="42" viewBox="0 0 102 42" fill="none" xmlns="http://www.w3.org/2000/svg">
<path d="M19.4788 3.14857C19.4728 3.21967 18.1517 4.7904 16.5427 6.63909C14.6479 8.81668 13.7963 9.89793 13.7963 9.89793C13.5168 9.89793 12.1749 9.72027 11.3921 10.2889C10.162 11.1825 9.89558 10.6633 9.89558 21.1183C9.89558 30.9146 9.95779 31.4485 11.1778 32.0992C11.8445 32.455 22.7271 32.455 23.3938 32.0992C24.0605 31.7435 24.7551 31.7347 24.7551 29.2629C24.7551 29.2629 24.8143 29.2629 28.9547 29.2629H33.2332V30.6751C33.2332 33.401 31.7201 36.1082 29.4577 37.4302C27.3021 38.6899 26.2947 38.8028 17.0317 38.8225C7.32404 38.8435 6.20514 38.6798 3.86463 36.8978C2.74858 36.0482 1.84044 34.5829 1.38382 33.8011C0.992439 33.1309 0.712879 31.3437 0.712879 30.7294C0.712879 30.7294 0.560547 28.1855 0.560547 20.8598C0.560547 14.6541 0.712879 9.67458 0.712879 9.67458C0.712879 9.67458 0.739872 8.3342 1.272 7.04968C2.31312 4.5365 4.26189 3.98965 6.91875 3.31405C8.04777 3.02678 19.5021 2.87604 19.4788 3.14857Z" fill="#2A3042"/>
<path d="M51.7582 13.9434C55.0335 19.667 58.1268 24.3503 58.1268 24.3503C58.1268 24.3503 58.1268 19.7035 58.1268 14.0237V3.53716H59.2288C59.2288 3.53716 65.8571 3.49346 72.5601 3.53716L84.706 3.53638V6.89763V10.2589L75.6948 10.3269L66.6839 10.3949V14.0113V17.6278H75.8893H85.0946V20.989V24.3503H75.8893H66.6839V27.9701V31.5898H75.7679H84.8527L84.8189 34.9511L84.7861 38.3123H71.0823H57.3784L55.722 35.4036C49.6635 24.7652 45.1679 17.9401 45.1679 17.9401C45.1679 17.9401 45.1578 22.4923 45.1679 28.1829L45.1855 38.1831H40.9599H36.734L36.6669 21.1183C36.6298 11.7326 36.5973 3.64679 36.6669 3.46554C36.6669 3.46554 37.8892 3.41124 41.3276 3.46554L45.803 3.53638L51.7582 13.9434Z" fill="#2A3042"/>
<path fill-rule="evenodd" clip-rule="evenodd" d="M98.3196 24.1762C99.4804 24.7435 100.654 26.3843 100.654 27.44C100.654 28.5575 99.7915 30.1373 98.7968 30.8439C97.8914 31.4869 95.6752 31.7833 94.0483 31.4789C92.6869 31.2242 91.167 29.6649 90.9369 28.286C90.6637 26.6551 91.5725 24.94 93.1337 24.1398C94.5153 23.4313 96.8293 23.4476 98.3196 24.1762ZM93.7103 28.8602C92.8799 28.2808 92.9448 27.122 93.8468 26.412C94.8255 25.642 97.1319 25.7886 97.8442 26.6661C98.4613 27.4252 98.4469 28.1021 97.8012 28.7457C97.1412 29.4034 94.5903 29.4751 93.7103 28.8602Z" fill="#2A3042"/>
<path d="M100.083 33.3574C100.005 34.563 100.004 34.5633 98.2551 35.4682C97.2932 35.966 96.5051 36.4606 96.5051 36.5671C96.5042 36.6736 97.3211 36.7611 98.3191 36.7611H100.134V37.9246V39.088H95.5963H91.0586V38.072C91.0586 37.0659 91.0797 37.0447 93.1332 35.9536C94.2737 35.3475 95.2077 34.7575 95.2077 34.6427C95.2077 34.5279 94.2737 34.434 93.1332 34.434H91.0586V33.443C91.0586 32.8977 91.1404 32.37 91.2407 32.2699C91.341 32.1699 93.3894 32.1023 95.7919 32.12L100.161 32.1517L100.083 33.3574Z" fill="#2A3042"/>
<path d="M100.187 21.3122C100.235 21.632 100.229 22.1585 100.173 22.4817L100.072 23.0694L95.6303 22.9988L91.1886 22.9282L91.1094 21.8294L91.0293 20.7305H95.5637C100.068 20.7305 100.099 20.7343 100.187 21.3122Z" fill="#2A3042"/>
<path fill-rule="evenodd" clip-rule="evenodd" d="M94.4306 14.3345C94.4306 15.2293 94.321 15.4845 93.8472 15.6919C93.4426 15.8687 93.2386 16.2108 93.1813 16.8078C93.108 17.5701 93.1644 17.6587 93.6761 17.5835C94.1195 17.5181 94.3648 17.1677 94.7307 16.0764C95.3452 14.2414 96.1865 13.4908 97.6288 13.4908C98.8866 13.4908 99.7127 13.9776 100.267 15.0449C101.129 16.7082 100.383 18.8863 98.7121 19.5824C97.2655 20.1848 97.0236 20.0899 97.0236 18.9205C97.0236 17.7634 96.6493 17.5367 96.3964 18.5407C96.205 19.3005 94.8504 20.2114 93.9121 20.2114C92.3923 20.2114 90.7898 18.4494 90.8058 16.7957C90.8176 15.6419 91.7769 14.0089 92.6713 13.6213C94.1541 12.9788 94.4306 13.0908 94.4306 14.3345ZM97.408 17.6277C96.6476 17.6277 96.6392 17.5814 97.1829 16.4386C97.413 15.9551 97.7089 15.5592 97.8396 15.5592C98.2071 15.5592 98.3934 16.2671 98.2139 16.9818C98.095 17.4534 97.8775 17.6277 97.408 17.6277Z" fill="#2A3042"/>
<path d="M100.134 4.16334V5.43674L98.0443 5.9086C96.8953 6.1682 95.9731 6.49682 95.9942 6.63903C96.0161 6.78124 96.9274 7.13727 98.019 7.43021L100.005 7.96285L100.079 10.339L100.154 12.7151H95.6064H91.0586V11.5517V10.3881H94.9481C97.0876 10.3881 98.8367 10.301 98.835 10.1942C98.8334 10.0874 97.2882 9.54524 95.3999 8.98933C90.9372 7.67533 91.0114 7.71722 91.1092 6.58163L91.1884 5.65289L95.4665 4.29365C97.8201 3.54617 99.8331 2.92434 99.9402 2.91218C100.047 2.90003 100.134 3.46291 100.134 4.16334Z" fill="#2A3042"/>
<path d="M26.1491 3.29722C29.3629 4.05064 31.6225 5.58277 32.6004 7.67093C33.2003 8.95204 33.2096 9.09879 33.212 17.4218L33.2146 25.872H28.9335H24.6522V18.7963V11.7203L24.3957 10.7375C23.7379 9.96013 23.2934 10.1485 20.47 10.0765L17.6172 10.0037L19.2352 8.06855C22.5929 4.05322 23.671 2.90812 24.0906 2.912C24.3282 2.91406 25.2545 3.08746 26.1491 3.29722Z" fill="#50A5F1"/>
</svg>
